<svg xmlns="http://www.w3.org/2000/svg" xmlns:xlink="http://www.w3.org/1999/xlink" width="1000" zoomAndPan="magnify" viewBox="0 0 750 749.999995" height="1000" preserveAspectRatio="xMidYMid meet" version="1.0"><defs><g/><clipPath id="81e2f8d26b"><path d="M 20.675781 17.875 L 730 17.875 L 730 732 L 20.675781 732 Z M 20.675781 17.875 " clip-rule="nonzero"/></clipPath><clipPath id="6695946c2f"><path d="M 68.675781 17.875 L 681.324219 17.875 C 694.054688 17.875 706.261719 22.929688 715.261719 31.933594 C 724.265625 40.933594 729.324219 53.144531 729.324219 65.875 L 729.324219 684.125 C 729.324219 696.855469 724.265625 709.066406 715.261719 718.066406 C 706.261719 727.070312 694.054688 732.125 681.324219 732.125 L 68.675781 732.125 C 55.945312 732.125 43.738281 727.070312 34.738281 718.066406 C 25.734375 709.066406 20.675781 696.855469 20.675781 684.125 L 20.675781 65.875 C 20.675781 53.144531 25.734375 40.933594 34.738281 31.933594 C 43.738281 22.929688 55.945312 17.875 68.675781 17.875 " clip-rule="nonzero"/></clipPath><clipPath id="54abc248b8"><path d="M 75 611 L 676 611 L 676 633.460938 L 75 633.460938 Z M 75 611 " clip-rule="nonzero"/></clipPath></defs><g clip-path="url(#81e2f8d26b)"><g clip-path="url(#6695946c2f)"><path fill="#9596fe" d="M 20.675781 17.875 L 730.832031 17.875 L 730.832031 731.546875 L 20.675781 731.546875 Z M 20.675781 17.875 " fill-opacity="1" fill-rule="nonzero"/></g></g><g clip-path="url(#54abc248b8)"><path fill="#14241c" d="M 675.796875 633.21875 L 611.25 633.21875 L 611.25 611.203125 L 675.796875 611.203125 Z M 568.554688 633.21875 L 503.996094 633.21875 L 503.996094 611.203125 L 568.554688 611.203125 Z M 461.304688 633.21875 L 396.75 633.21875 L 396.75 611.203125 L 461.304688 611.203125 Z M 354.054688 633.21875 L 289.496094 633.21875 L 289.496094 611.203125 L 354.054688 611.203125 Z M 246.800781 633.21875 L 182.25 633.21875 L 182.25 611.203125 L 246.800781 611.203125 Z M 139.554688 633.21875 L 75 633.21875 L 75 611.203125 L 139.554688 611.203125 Z M 139.554688 633.21875 " fill-opacity="1" fill-rule="nonzero"/></g><g fill="#14241c" fill-opacity="1"><g transform="translate(166.126283, 550.657865)"><g><path d="M 198.71875 -405.75 C 264.582031 -405.75 314.859375 -388.726562 349.546875 -354.6875 C 384.242188 -320.644531 401.59375 -270.039062 401.59375 -202.875 C 401.59375 -135.894531 384.242188 -85.335938 349.546875 -51.203125 C 314.859375 -17.066406 264.582031 0 198.71875 0 L 52.734375 0 L 52.734375 -405.75 Z M 194 -67.4375 C 235.8125 -67.4375 267.078125 -78.117188 287.796875 -99.484375 C 308.523438 -120.859375 318.890625 -155.320312 318.890625 -202.875 C 318.890625 -250.425781 308.523438 -284.882812 287.796875 -306.25 C 267.078125 -327.625 235.8125 -338.3125 194 -338.3125 L 132.9375 -338.3125 L 132.9375 -67.4375 Z M 194 -67.4375 "/></g></g></g></svg>